<svg viewBox="0 0 200 100" xmlns="http://www.w3.org/2000/svg">
    <defs>
        <pattern id="carre" patternUnits="userSpaceOnUse" width="20" height="20">
            <path d="M 5 5 l 10 0 l 0 10 l -10 0 Z" fill="lightgreen" stroke="green" stroke-width="2"
                stroke-linecap="square" shape-rendering="auto"></path>
        </pattern>
        <filter id="noise2">
            <feTurbulence baseFrequency="0.035" />
            <feDisplacementMap in="SourceGraphic" scale="10" />
        </filter>
        <path filter="url(#noise2)" d="${path_d}" stroke="#000" fill="none" stroke-width="3px"
            transform="translate(0,-150)" />
    </defs>
    <ellipse cx="100" cy="48" rx="20" ry="3" fill="#31c431" />
    <ellipse cx="55" cy="50" rx="5" ry="10" fill="#31c431" />
    <ellipse cx="95" cy="50" rx="5" ry="10" fill="#31c431" />
    <path d="M40,50 A 20 20 0 1 1 110,50 L 40 50" fill="#31c431" stroke="green" stroke-width="2"
        stroke-linecap="round" />
    <path d="M40,50 A 20 20 0 1 1 110,50 L 40 50" fill="url(#carre)" stroke="green" stroke-width="2"
        stroke-linecap="round" />
    <circle cx="35" cy="40" r="15" fill="#31c431" />
    <circle cx="28" cy="38" r="2" fill="green" />
    <circle cx="39" cy="38" r="2" fill="green" />
    <path d="M28,45 A 2 2 0 0 0 40,45 " fill="none" stroke="green" stroke-width="2" />
    <text filter="url(#noise2)" x="55" y="70" stroke="green" fill="#31c431">Tortue</text>
</svg>